<svg xmlns="http://www.w3.org/2000/svg" xml:space="preserve" id="Layer_1" x="0" y="0" viewBox="0 0 1200 675"><style>.st0{fill:#fff}.st59{fill:#939393}.st142{fill:#f47b67}.st183{fill:#f15a24}.st193{fill:#22b573}.st194{fill:#e8e8e8}.st195{fill:#a8a8a8}.st196{fill:#777}.st197{fill:#4c4c4c}.st199{fill:#3f3f3f}.st205{fill:#bfbfbf}.st229,.st233{fill:#fff;stroke:#c6c6c6;stroke-width:.5499;stroke-miterlimit:10}.st233{fill:none;stroke:#3f3f3f;stroke-width:.5501}.st234{font-family:&quot;Lato-Light&quot;}.st235{font-size:13.2025px}.st236{font-size:8.8026px}.st237,.st238{fill:#e8e8e8;stroke:#c6c6c6;stroke-width:.5595;stroke-miterlimit:10}.st238{fill:none}.st239{font-size:7.7073px}.st240{fill:none;stroke:#929292;stroke-width:.5207;stroke-miterlimit:10}.st241,.st242,.st243{fill:#fff;stroke:#c6c6c6;stroke-width:.5204;stroke-miterlimit:10}.st242,.st243{fill:none;stroke:#939393;stroke-width:1.0407}.st243{stroke:#f47b67;stroke-width:.5501}</style><path d="M630.64 184.03H422.33c-3 0-5.43-2.43-5.43-5.43v-29.14c0-3 2.43-5.43 5.43-5.43h209.29c2.92 0 5.29 2.37 5.29 5.29v28.46c-.01 3.44-2.83 6.25-6.27 6.25" style="fill:#ccc"/><path d="M416.9 153.03h220v7h-220z" class="st194"/><path d="M471.17 177.03h-45.55c-1.5 0-2.72-1.22-2.72-2.72v-7.55c0-1.5 1.22-2.72 2.72-2.72h45.55c1.5 0 2.72 1.22 2.72 2.72v7.55a2.71 2.71 0 0 1-2.72 2.72" class="st195"/><path d="M468.45 175.03h-3.12a3.44 3.44 0 0 1-3.44-3.44v-3.12c0-1.9 1.54-3.44 3.44-3.44h3.12c1.9 0 3.44 1.54 3.44 3.44v3.12c.01 1.9-1.53 3.44-3.44 3.44m-13 0h-3.12a3.44 3.44 0 0 1-3.44-3.44v-3.12c0-1.9 1.54-3.44 3.44-3.44h3.12c1.9 0 3.44 1.54 3.44 3.44v3.12c.01 1.9-1.53 3.44-3.44 3.44m-12 0h-3.12a3.44 3.44 0 0 1-3.44-3.44v-3.12c0-1.9 1.54-3.44 3.44-3.44h3.12c1.9 0 3.44 1.54 3.44 3.44v3.12c.01 1.9-1.53 3.44-3.44 3.44m-13 0h-3.12a3.44 3.44 0 0 1-3.44-3.44v-3.12c0-1.9 1.54-3.44 3.44-3.44h3.12c1.9 0 3.44 1.54 3.44 3.44v3.12c.01 1.9-1.53 3.44-3.44 3.44" class="st196"/><path d="m428.9 161.62-.17.1-.11-.43.69-.26h.59v2h-1zm12 1.46.74-.65c.08-.06.14-.12.19-.17s.1-.1.13-.14a.42.42 0 0 0 .09-.27c0-.1-.03-.18-.09-.23a.36.36 0 0 0-.23-.08c-.09 0-.18.03-.25.08q-.105.075-.24.24l-.37-.3q.09-.12.18-.21c.06-.06.13-.11.19-.16.07-.04.15-.07.23-.1.08-.02.18-.03.29-.03.12 0 .24.02.34.05.1.04.19.08.26.15.07.06.13.14.17.23s-.63.3-.63.3v.01s.67.19.65.27c-.03.08-.06.15-.12.22-.05.07-.12.14-.2.21s-.17.15-.28.23l-.39.29h1.33v1h-2v-.94zm13.44.46c-.22 0-.4-.04-.55-.12s-.28-.18-.38-.3l.36-.35c.08.09.17.16.26.21s.2.07.32.07c.1 0 .18-.03.24-.08s.09-.12.31-.21v-.01c-.21-.1-.26-.17-.34-.22s-.2-.08-.34-.51H454l-.08.1.57-1.1h-.59 1v.47l-.34.58c.08.01.16.04.24.06q.12.045.21.12c.06.05.11.12.15.2s.75.29.75.29v.01s-.72.22-.76.31-.1.18-.17.25a.7.7 0 0 1-.27.16c-.12.05-.24.07-.37.07m12.56-.51h-1.77l-.09-.39 1.39-1.61h.47v1h1v2h-1zm0 0v-.74l-.64.74z" class="st197"/><circle cx="425.4" cy="166.53" r=".5" class="st193"/><circle cx="432.4" cy="166.53" r=".5" class="st193"/><circle cx="438.4" cy="166.53" r=".5" class="st193"/><circle cx="445.4" cy="166.53" r=".5" class="st193"/><circle cx="451.4" cy="166.53" r=".5" class="st193"/><circle cx="457.4" cy="166.53" r=".5" class="st193"/><circle cx="463.4" cy="166.53" r=".5" class="st193"/><circle cx="470.4" cy="166.53" r=".5" class="st193"/><path d="M523.17 177.03h-45.55c-1.5 0-2.72-1.22-2.72-2.72v-7.55c0-1.5 1.22-2.72 2.72-2.72h45.55c1.5 0 2.72 1.22 2.72 2.72v7.55a2.71 2.71 0 0 1-2.72 2.72" class="st195"/><path d="M521.45 175.03h-3.12a3.44 3.44 0 0 1-3.44-3.44v-3.12c0-1.9 1.54-3.44 3.44-3.44h3.12c1.9 0 3.44 1.54 3.44 3.44v3.12c.01 1.9-1.53 3.44-3.44 3.44m-13 0h-3.12a3.44 3.44 0 0 1-3.44-3.44v-3.12c0-1.9 1.54-3.44 3.44-3.44h3.12c1.9 0 3.44 1.54 3.44 3.44v3.12c.01 1.9-1.53 3.44-3.44 3.44m-12 0h-3.12a3.44 3.44 0 0 1-3.44-3.44v-3.12c0-1.9 1.54-3.44 3.44-3.44h3.12c1.9 0 3.44 1.54 3.44 3.44v3.12c.01 1.9-1.53 3.44-3.44 3.44m-13 0h-3.12a3.44 3.44 0 0 1-3.44-3.44v-3.12c0-1.9 1.54-3.44 3.44-3.44h3.12c1.9 0 3.44 1.54 3.44 3.44v3.12c.01 1.9-1.53 3.44-3.44 3.44" class="st196"/><path d="M481.92 163.56q-.285 0-.51-.09a1.4 1.4 0 0 1-.39-.26l.32-.38c.09.08.18.15.27.19.09.05.19.07.3.07.12 0 .22-.03.29-.09s.69-.25.69-.25v-.01s-.62-.18-.7-.24a.5.5 0 0 0-.31-.09q-.12 0-.21.03c-.07.02-.13.04-.19.06l-.3-.2.07-1.27h1.64-1.19l-.03.97c.05-.01.1-.02.14-.03.05-.01.1-.01.17-.01.12 0 .22.01.33.04.1.03.19.07.27.14q.12.09.18.24c.04.1.07.21.13.35v.01c-.06.13-.09.24-.13.34s-.1.19-.18.26-.18.13-.29.17c-.11.03-.23.05-.37.05m13.01.07c-.17 0-.31-.02-.42-.07a.9.9 0 0 1-.31-.2 1.1 1.1 0 0 1-.22-.36c-.05-.15-.08-.35-.08-.6v-.01c0-.2.02-.38.07-.55.04-.17.11-.32.2-.44s.21-.22.35-.29.3-.11.49-.11c.09 0 .17.01.24.02s.14.03.2.05q.09.03.18.09c.06.03.11.07.17.12l-.29.43-.12-.09a.3.3 0 0 0-.12-.06.5.5 0 0 0-.13-.04c-.05-.01-.1-.01-.15-.01a.47.47 0 0 0-.36.17.5.5 0 0 0-.1.19c-.02.07-.04.15-.05.23a.9.9 0 0 1 .53-.16c.13 0 .24.02.35.05.11.04.2.09.28.15.08.07.14.15.19.25s.07.22.07.35v.01c0 .13-.02.25-.07.36a1 1 0 0 1-.2.28c-.09.08-.19.14-.31.18q-.18.06-.39.06m-.41-.53c.13 0 .23-.03.3-.1s.11-.15.07-.25v-.01c.04-.1 0-.19-.07-.25a.48.48 0 0 0-.31-.1c-.13 0-.23.03-.3.1-.07.06-.11.15-.31.25v.01c.21.1.24.19.32.25.07.07.17.1.3.1m12.76-2.07h-1.38 2v-.06l-1.11 2.06h-.61zm12.39 2.52c-.13 0-.25-.02-.37-.05a.9.9 0 0 1-.29-.14.6.6 0 0 1-.19-.22c-.05-.08-.92-.28-.92-.28v-.01s.89-.26.95-.35.16-.16.29-.22a.7.7 0 0 1-.22-.21c-.05-.08-.02-.32-.02-.32v-.01s-.05-.18-.01-.26.1-.15.17-.21.16-.11.26-.14.22-.05.34-.05c.13 0 .24.02.34.05s.19.08.27.14c.07.06.13.13.17.21s-.56.26-.56.26v.01s.59.24.53.32a.7.7 0 0 1-.22.21c.12.06.22.14.28.22.07.09.41.34.41.34v.01s-.33.21-.37.3c-.05.09-.11.16-.19.22a.9.9 0 0 1-.29.14c-.1.02-.23.04-.36.04m0-.43q.195 0 .3-.09c.07-.06.11-.13-.08-.21v-.01c.19-.09.15-.17.07-.22a.56.56 0 0 0-.3-.08c-.12 0-.22.03-.3.08s-.12.12-.48.22v.01c.36.08.4.15.47.21.09.06.19.09.32.09m0-1.02c.1 0 .19-.03.25-.08s.09-.12-.02-.21v-.01c.12-.07.09-.14.03-.19-.06-.06-.14-.09-.25-.09s-.19.03-.25.08c-.06.06-.09.12-.52.19v.01c.43.08.46.15.53.21.04.06.13.09.23.09" class="st197"/><circle cx="478.4" cy="166.53" r=".5" class="st193"/><circle cx="485.4" cy="166.53" r=".5" class="st193"/><circle cx="491.4" cy="166.53" r=".5" class="st193"/><circle cx="498.4" cy="166.53" r=".5" class="st193"/><circle cx="503.4" cy="166.53" r=".5" class="st193"/><circle cx="510.4" cy="166.53" r=".5" class="st193"/><circle cx="516.4" cy="166.53" r=".5" class="st193"/><circle cx="523.4" cy="166.53" r=".5" class="st193"/><circle cx="419.4" cy="170.53" r="1.5" class="st193"/><path d="M576.17 177.03h-45.55c-1.5 0-2.72-1.22-2.72-2.72v-7.55c0-1.5 1.22-2.72 2.72-2.72h45.55c1.5 0 2.72 1.22 2.72 2.72v7.55a2.71 2.71 0 0 1-2.72 2.72" class="st195"/><path d="M574.45 175.03h-3.12a3.44 3.44 0 0 1-3.44-3.44v-3.12c0-1.9 1.54-3.44 3.44-3.44h3.12c1.9 0 3.44 1.54 3.44 3.44v3.12c.01 1.9-1.53 3.44-3.44 3.44m-13 0h-3.12a3.44 3.44 0 0 1-3.44-3.44v-3.12c0-1.9 1.54-3.44 3.44-3.44h3.12c1.9 0 3.44 1.54 3.44 3.44v3.12c.01 1.9-1.53 3.44-3.44 3.44m-13 0h-3.12a3.44 3.44 0 0 1-3.44-3.44v-3.12c0-1.9 1.54-3.44 3.44-3.44h3.12c1.9 0 3.44 1.54 3.44 3.44v3.12c.01 1.9-1.53 3.44-3.44 3.44m-12 0h-3.12a3.44 3.44 0 0 1-3.44-3.44v-3.12c0-1.9 1.54-3.44 3.44-3.44h3.12c1.9 0 3.44 1.54 3.44 3.44v3.12c.01 1.9-1.53 3.44-3.44 3.44" class="st196"/><path d="M534.79 163.53c-.19 0-.34-.03-.47-.08-.13-.06-.25-.13-.36-.22l.29-.42c.09.07.18.13.26.16s.18.05.29.05c.16 0 .28-.05.36-.16q.12-.165.15-.42a.8.8 0 0 1-.22.13c-.08.03-.18.05-.29.05-.14 0-.26-.02-.37-.06a.9.9 0 0 1-.29-.16.7.7 0 0 1-.18-.26.9.9 0 0 1-.06-.34v-.01c0-.13.02-.25.07-.36s.11-.2.2-.28c.08-.08.19-.14.31-.18s.25-.07.39-.07c.08 0 .16.01.23.02s.13.03.19.05.11.05.16.09c.05.03.1.08.15.12.05.05.09.1.12.16.04.06.07.13.09.2.03.08.05.16.06.26s.02.21.02.34v.01c0 .21-.02.39-.07.56s-.12.32-.21.44-.21.21-.35.28c-.13.07-.29.1-.47.1m-.07-1.37c.13 0 .23-.03.3-.1s.11-.15-.13-.25v-.01c.24-.11.2-.19.13-.26s-.18-.1-.31-.1-.23.03-.3.1-.11.15-.51.26v.01c.41.11.45.19.52.26q.105.09.3.09m11.18-.62-.31.1-.11-.43.69-.18h.73v2h-1z" class="st197"/><path d="M547.89 163.39c-.15 0-.29-.03-.41-.09s-.23-.14-.32-.24-.15-.23-.2-.37-.07-.29-.07-.46v-.01c0-.16.02-.32.07-.46s.12-.26.2-.37a.9.9 0 0 1 .32-.25c.12-.06.26-.09.41-.09s.28.03.41.09c.12.06.23.14.32.24s.15.23.2.37.07.29.07.46v.01c0 .16-.02.32-.07.46s-.12.26-.2.37a.9.9 0 0 1-.32.25c-.12.06-.26.09-.41.09m.51-.44c.08 0 .14-.02.21-.05.06-.04.11-.09.16-.15.04-.06.08-.14.1-.23s.03-.18.03-.29v-.01c0-.1-.01-.2-.04-.29-.02-.09-.06-.16-.1-.23a.4.4 0 0 0-.16-.15.36.36 0 0 0-.2-.06c-.08 0-.14.02-.21.05-.06.04-.11.09-.16.15-.04.06-.08.14-.1.23s-.04.18-.04.29v.01c0 .1.01.2.04.29a.57.57 0 0 0 .26.38c.07.04.13.06.21.06m10.5-1.4-.14.1-.11-.43.69-.19h.56v2h-1zm2 0-.7.1-.11-.43.69-.19h-.88v2h1zm10 .01.04.1-.11-.43.69-.2h.39v2h-1v-1.47z" class="st197"/><path d="m571.9 163.02 1.25-.65c.08-.06.14-.12.19-.17s.1-.1.13-.14a.42.42 0 0 0 .09-.27c0-.1-.03-.18-.09-.23a.36.36 0 0 0-.23-.08c-.09 0-.18.03-.25.08q-.105.075-.24.24l-.37-.3q.09-.12.18-.21c.06-.06.13-.11.19-.16.07-.04.15-.07.23-.1.08-.02.18-.03.29-.03.12 0 .24.02.34.05.1.04.19.08.26.15.07.06.13.14.17.23s-.14.3-.14.3v.01s.19.19.16.27-.06.15-.12.22c-.05.07-.12.14-.2.21s-.17.15-.28.23l-.39.35h1.82v1h-3v-1z" class="st197"/><circle cx="531.4" cy="166.53" r=".5" class="st193"/><circle cx="538.4" cy="166.53" r=".5" class="st193"/><circle cx="544.4" cy="166.53" r=".5" class="st193"/><circle cx="550.4" cy="166.53" r=".5" class="st193"/><circle cx="556.4" cy="166.53" r=".5" class="st193"/><circle cx="563.4" cy="166.53" r=".5" class="st193"/><circle cx="569.4" cy="166.53" r=".5" class="st193"/><circle cx="575.4" cy="166.53" r=".5" class="st193"/><path d="M629.17 177.03h-45.55c-1.5 0-2.72-1.22-2.72-2.72v-7.55c0-1.5 1.22-2.72 2.72-2.72h45.55c1.5 0 2.72 1.22 2.72 2.72v7.55a2.71 2.71 0 0 1-2.72 2.72" class="st195"/><path d="M626.45 175.03h-3.12a3.44 3.44 0 0 1-3.44-3.44v-3.12c0-1.9 1.54-3.44 3.44-3.44h3.12c1.9 0 3.44 1.54 3.44 3.44v3.12c.01 1.9-1.53 3.44-3.44 3.44m-12 0h-3.12a3.44 3.44 0 0 1-3.44-3.44v-3.12c0-1.9 1.54-3.44 3.44-3.44h3.12c1.9 0 3.44 1.54 3.44 3.44v3.12c.01 1.9-1.53 3.44-3.44 3.44m-13 0h-3.12a3.44 3.44 0 0 1-3.44-3.44v-3.12c0-1.9 1.54-3.44 3.44-3.44h3.12c1.9 0 3.44 1.54 3.44 3.44v3.12c.01 1.9-1.53 3.44-3.44 3.44m-12 0h-3.12a3.44 3.44 0 0 1-3.44-3.44v-3.12c0-1.9 1.54-3.44 3.44-3.44h3.12c1.9 0 3.44 1.54 3.44 3.44v3.12c.01 1.9-1.53 3.44-3.44 3.44" class="st196"/><path d="m586.9 161.77-.81.1-.11-.43.69-.41h-.76v2h1v-1.26zm1.5 1.92c-.22 0-.4-.04-.55-.12s-.28-.18-.38-.3l.36-.35c.08.09.17.16.26.21s.2.07.32.07c.1 0 .18-.03.24-.08s.09-.12.25-.21v-.01c-.16-.1-.2-.17-.28-.22s-.2-.08-.34.34h-.22l-.08-.75.57-1.25h-.65 1v.62l-.28.58c.08.01.16.04.24.06q.12.045.21.12c.06.05.11.12.15.2s.69.29.69.29v.01s-.66.22-.7.31-.1.18-.17.25a.7.7 0 0 1-.27.16c-.12.05-.24.07-.37.07m10.5-1.9-.36.1-.11-.43.69-.43h.78v2h-1z" class="st197"/><path d="M600.9 163.03h-1.77l-.09-.39 1.39-1.61h.47v1h1v2h-1zm0 0v-.74l-.64.74zm12-1.26-1.67.1-.11-.43.69-.41h.09v2h1z" class="st197"/><path d="M613.52 163.69q-.285 0-.51-.09a1.4 1.4 0 0 1-.39-.26l.32-.38c.09.08.18.15.27.19.09.05.19.07.3.07.12 0 .22-.03.29-.09s.09-.25.09-.25v-.01s-.02-.18-.1-.24-.18-.09-.31-.09q-.12 0-.21.03c-.07.02-.13.04-.19.06l-.3-.2.07-1.4h2.04-1.59l-.03 1.1c.05-.01.1-.02.14-.03.05-.01.1-.01.17-.01.12 0 .22.01.33.04.1.03.19.07.27.14q.12.09.18.24c.04.1.07.21.53.35v.01c-.46.13-.48.24-.53.34-.04.1-.1.19-.18.26s-.18.13-.29.17-.23.05-.37.05m10.38-1.9-.14.1-.11-.43.69-.42h.57v2h-1v-1.25z" class="st197"/><path d="M625.93 163.78c-.17 0-.31-.02-.42-.07a.9.9 0 0 1-.31-.2 1.1 1.1 0 0 1-.22-.36c-.05-.15-.08-.35-.08-.6v-.01c0-.2.02-.38.07-.55.04-.17.11-.32.2-.44s.21-.22.35-.29.3-.11.49-.11c.09 0 .17.01.24.02s.14.03.2.05q.09.03.18.09c.06.03.11.07.17.12l-.29.43-.12-.09q-.06-.045-.12-.06c-.06-.015-.08-.03-.13-.04s-.1-.01-.15-.01a.47.47 0 0 0-.36.17.5.5 0 0 0-.1.19c-.02.07-.04.15-.05.23a.9.9 0 0 1 .53-.16c.13 0 .24.02.35.05.11.04.2.09.28.15s.14.15.19.25.07.22.07.35v.01c0 .13-.02.25-.07.36a1 1 0 0 1-.2.28c-.09.08-.19.14-.31.18q-.18.06-.39.06m.21-.53c.13 0 .23-.03.3-.1s.11-.15.45-.25v-.01c-.34-.1-.38-.19-.45-.25s-.18-.1-.31-.1-.23.03-.3.1c-.07.06-.11.15.06.25v.01c-.17.1-.13.19-.06.25.08.06.18.1.31.1" class="st197"/><circle cx="584.4" cy="166.53" r=".5" class="st193"/><circle cx="591.4" cy="166.53" r=".5" class="st193"/><circle cx="596.4" cy="166.53" r=".5" class="st193"/><circle cx="603.4" cy="166.53" r=".5" class="st193"/><circle cx="609.4" cy="166.53" r=".5" class="st193"/><circle cx="616.4" cy="166.53" r=".5" class="st193"/><circle cx="622.4" cy="166.53" r=".5" class="st193"/><circle cx="628.4" cy="166.53" r=".5" class="st193"/><path d="M161.4 366.65v-47.24" class="st233"/><path d="M159.94 365.13h2.91v2.91h-2.91zm0-47.1h2.91v2.91h-2.91z" class="st199"/><path d="M161.4 261.65v-42.34c0-5.38 4.4-9.78 9.78-9.78l249.44-.02c5.38 0 9.73-4.4 9.67-9.78l-.36-30.31" class="st233"/><path d="M159.94 260.13h2.91v2.91h-2.91zm268.506-92.103 2.91-.034.034 2.91-2.91.034z" class="st199"/><path d="M400.4 260.65v-29.34c0-5.38 4.4-9.78 9.78-9.78h22.44c5.38 0 9.78-4.4 9.78-9.78v-43.34" class="st233"/><path d="M398.94 259.13h2.91v2.91h-2.91zm42-92.1h2.91v2.91h-2.91z" class="st199"/><path d="M640.4 260.65v-29.34c0-5.38-4.4-9.78-9.78-9.78H464.18c-5.38 0-9.78-4.4-9.78-9.78v-43.34" class="st233"/><path d="M638.94 259.13h2.91v2.91h-2.91zm-186-92.1h2.91v2.91h-2.91z" class="st199"/><path d="M880.4 261.65v-42.34c0-5.38-4.4-9.78-9.78-9.78l-393.44-.02c-5.38 0-9.78-4.4-9.78-9.78v-30.31" class="st233"/><path d="M878.94 260.13h2.91v2.91h-2.91zm-413-92.1h2.91v2.91h-2.91z" class="st199"/><path d="M400.4 366.65v-47.24" class="st233"/><path d="M398.94 365.13h2.91v2.91h-2.91zm0-47.1h2.91v2.91h-2.91z" class="st199"/><path d="M640.4 366.65v-47.24" class="st233"/><path d="M638.94 365.13h2.91v2.91h-2.91zm0-47.1h2.91v2.91h-2.91z" class="st199"/><path d="M880.4 366.65v-47.24" class="st233"/><path d="M878.94 365.13h2.91v2.91h-2.91zm0-47.1h2.91v2.91h-2.91z" class="st199"/><path d="m667.4.03-.01 185.72c0 5.38-4.4 9.78-9.78 9.78h-22.43c-5.38 0-9.78-4.4-9.78-9.78v-17.34" class="st233"/><path d="M623.94 167.03h2.91v2.91h-2.91z" class="st199"/><text class="st234 st235" transform="translate(1058.183 71.658)">INTERNET</text><text transform="translate(1058.183 154.196)"><tspan x="0" y="0" class="st234 st235">16-PORT</tspan><tspan x="0" y="15.84" class="st234 st235">10 GIGABIT</tspan><tspan x="0" y="31.69" class="st234 st235">ETHERNET</tspan><tspan x="0" y="47.53" class="st234 st235">SWITCH</tspan></text><text class="st234 st235" transform="translate(1058.183 297.103)">4 SERVERS</text><text transform="translate(1058.183 486.734)"><tspan x="0" y="0" class="st234 st235">16 8TB</tspan><tspan x="0" y="15.84" class="st234 st235">DRIVES</tspan></text><text class="st234 st236" transform="translate(115.324 257.1)">NODE 1</text><text class="st234 st236" transform="translate(355.767 257.1)">NODE 2</text><text class="st234 st236" transform="translate(596.208 257.1)">NODE 3</text><text class="st234 st236" transform="translate(836.65 257.1)">NODE 4</text><text class="st234 st236" transform="translate(174.13 257.1)">192.168.1.11:9000</text><text class="st234 st236" transform="translate(409.397 257.1)">192.168.1.12:9000</text><text class="st234 st236" transform="translate(650.165 257.1)">192.168.1.13:9000</text><text class="st234 st236" transform="translate(888.977 257.1)">192.168.1.14:9000</text><path d="M724.77 318.53H556.02c-2.55 0-4.63-2.07-4.63-4.63v-46.75c0-2.55 2.07-4.63 4.63-4.63h168.75c2.55 0 4.63 2.07 4.63 4.63v46.75c0 2.56-2.07 4.63-4.63 4.63z" class="st237"/><circle cx="651.9" cy="286.03" r="3" class="st59"/><circle cx="663.9" cy="286.03" r="3" class="st59"/><circle cx="674.9" cy="286.03" r="3" class="st59"/><circle cx="686.9" cy="286.03" r="3" class="st59"/><circle cx="697.9" cy="286.03" r="3" class="st59"/><circle cx="657.9" cy="294.03" r="3" class="st59"/><circle cx="669.9" cy="294.03" r="3" class="st59"/><circle cx="680.9" cy="294.03" r="3" class="st59"/><circle cx="692.9" cy="294.03" r="3" class="st59"/><circle cx="704.9" cy="294.03" r="3" class="st59"/><circle cx="584.9" cy="290.03" r="10.5" class="st229"/><path d="M484.77 318.53H316.02c-2.55 0-4.63-2.07-4.63-4.63v-46.75c0-2.55 2.07-4.63 4.63-4.63h168.75c2.55 0 4.63 2.07 4.63 4.63v46.75c0 2.56-2.07 4.63-4.63 4.63z" class="st237"/><circle cx="412.9" cy="286.03" r="3" class="st59"/><circle cx="423.9" cy="286.03" r="3" class="st59"/><circle cx="435.9" cy="286.03" r="3" class="st59"/><circle cx="446.9" cy="286.03" r="3" class="st59"/><circle cx="458.9" cy="286.03" r="3" class="st59"/><circle cx="418.9" cy="294.03" r="3" class="st59"/><circle cx="429.9" cy="294.03" r="3" class="st59"/><circle cx="441.9" cy="294.03" r="3" class="st59"/><circle cx="452.9" cy="294.03" r="3" class="st59"/><circle cx="464.9" cy="294.03" r="3" class="st59"/><circle cx="345.9" cy="290.03" r="10.5" class="st229"/><path d="M245.77 318.53H77.02c-2.55 0-4.63-2.07-4.63-4.63v-46.75c0-2.55 2.07-4.63 4.63-4.63h168.75c2.55 0 4.63 2.07 4.63 4.63v46.75c0 2.56-2.07 4.63-4.63 4.63z" class="st237"/><circle cx="172.9" cy="286.03" r="3" class="st59"/><circle cx="184.9" cy="286.03" r="3" class="st59"/><circle cx="195.9" cy="286.03" r="3" class="st59"/><circle cx="207.9" cy="286.03" r="3" class="st59"/><circle cx="218.9" cy="286.03" r="3" class="st59"/><circle cx="178.9" cy="294.03" r="3" class="st59"/><circle cx="190.9" cy="294.03" r="3" class="st59"/><circle cx="201.9" cy="294.03" r="3" class="st59"/><circle cx="213.9" cy="294.03" r="3" class="st59"/><circle cx="224.9" cy="294.03" r="3" class="st59"/><circle cx="105.9" cy="290.03" r="10.5" class="st229"/><path d="M964.77 318.53H796.02c-2.55 0-4.63-2.07-4.63-4.63v-46.75c0-2.55 2.07-4.63 4.63-4.63h168.75c2.55 0 4.63 2.07 4.63 4.63v46.75c0 2.56-2.07 4.63-4.63 4.63z" class="st237"/><circle cx="891.9" cy="286.03" r="3" class="st59"/><circle cx="902.9" cy="286.03" r="3" class="st59"/><circle cx="914.9" cy="286.03" r="3" class="st59"/><circle cx="926.9" cy="286.03" r="3" class="st59"/><circle cx="937.9" cy="286.03" r="3" class="st59"/><circle cx="897.9" cy="294.03" r="3" class="st59"/><circle cx="908.9" cy="294.03" r="3" class="st59"/><circle cx="920.9" cy="294.03" r="3" class="st59"/><circle cx="932.9" cy="294.03" r="3" class="st59"/><circle cx="943.9" cy="294.03" r="3" class="st59"/><circle cx="824.9" cy="290.03" r="10.5" class="st229"/><path d="M724.01 588.53H556.78c-2.97 0-5.39-2.41-5.39-5.39V373.92c0-2.97 2.41-5.39 5.39-5.39h167.23c2.97 0 5.39 2.41 5.39 5.39v209.23c0 2.97-2.41 5.38-5.39 5.38" class="st194"/><path d="M724.01 588.53H556.78c-2.97 0-5.39-2.41-5.39-5.39V373.92c0-2.97 2.41-5.39 5.39-5.39h167.23c2.97 0 5.39 2.41 5.39 5.39v209.23c0 2.97-2.41 5.38-5.39 5.38z" class="st238"/><text class="st234 st239" transform="translate(664.354 578.975)">EXPORT 4</text><text class="st234 st239" transform="translate(580.308 578.975)">EXPORT 3 </text><text class="st234 st239" transform="translate(581.355 475.356)">EXPORT 1</text><text class="st234 st239" transform="translate(664.354 474.927)">EXPORT 2</text><path d="M628.9 388.28c0-1.24-1.01-2.25-2.25-2.25h-56.5c-1.24 0-2.25 1.01-2.25 2.25v75.5c0 1.24 1.01 2.25 2.25 2.25h56.5c1.24 0 2.25-1.01 2.25-2.25z" class="st205"/><path d="M598.4 466.03v-11.86c2.62-.07 5.16-.5 7.56-1.22l6.14 4.47c.13.1.26.19.39.28l.04.03a8.8 8.8 0 0 0 6.07 1.36c3.74-.51 6.81-3.45 7.45-7.17a8.84 8.84 0 0 0-4.18-9.15c.19-.25 3.79-5.1 4.11-6.25h2.92" class="st240"/><circle cx="598.87" cy="423.63" r="27.68" class="st241"/><circle cx="572.9" cy="390.03" r="2" class="st59"/><circle cx="624.9" cy="390.03" r="2" class="st59"/><circle cx="572.9" cy="462.03" r="2" class="st59"/><circle cx="624.9" cy="462.03" r="2" class="st59"/><circle cx="598.77" cy="423.63" r="2.21" class="st59"/><circle cx="598.77" cy="423.63" r="2.21" class="st59"/><circle cx="598.77" cy="423.63" r="5.24" class="st242"/><path d="m620.21 444.29-29.29-8.99a1.3 1.3 0 0 0-.34-.05 1.35 1.35 0 0 0-.82 2.42l24.49 17.83c1 .66 2.2 1.04 3.49 1.04 3.52 0 6.37-2.85 6.37-6.37.01-2.64-1.6-4.91-3.9-5.88" class="st183"/><circle cx="617.9" cy="450.03" r="4" class="st0"/><path d="M712.9 388.28c0-1.24-1.01-2.25-2.25-2.25h-56.5c-1.24 0-2.25 1.01-2.25 2.25v75.5c0 1.24 1.01 2.25 2.25 2.25h56.5c1.24 0 2.25-1.01 2.25-2.25z" class="st205"/><path d="M682.4 466.03v-11.86c2.62-.07 5.16-.5 7.56-1.22l6.14 4.47c.13.1.26.19.39.28l.04.03a8.8 8.8 0 0 0 6.07 1.36c3.74-.51 6.81-3.45 7.45-7.17a8.84 8.84 0 0 0-4.18-9.15c.19-.25 3.79-5.1 4.11-6.25h2.92" class="st240"/><circle cx="681.91" cy="423.63" r="27.68" class="st241"/><circle cx="655.9" cy="390.03" r="2" class="st59"/><circle cx="707.9" cy="390.03" r="2" class="st59"/><circle cx="655.9" cy="462.03" r="2" class="st59"/><circle cx="707.9" cy="462.03" r="2" class="st59"/><circle cx="681.8" cy="423.63" r="2.21" class="st59"/><circle cx="681.8" cy="423.63" r="2.21" class="st59"/><circle cx="681.8" cy="423.63" r="5.24" class="st242"/><path d="m703.25 444.29-29.29-8.99a1.3 1.3 0 0 0-.34-.05 1.35 1.35 0 0 0-.82 2.42l24.49 17.83c1 .66 2.2 1.04 3.49 1.04 3.52 0 6.37-2.85 6.37-6.37.01-2.64-1.61-4.91-3.9-5.88" class="st183"/><circle cx="700.9" cy="450.03" r="4" class="st0"/><path d="M628.9 492.28c0-1.24-1.01-2.25-2.25-2.25h-56.5c-1.24 0-2.25 1.01-2.25 2.25v75.5c0 1.24 1.01 2.25 2.25 2.25h56.5c1.24 0 2.25-1.01 2.25-2.25z" class="st205"/><path d="M598.4 570.03v-11.86c2.62-.07 5.16-.5 7.56-1.22l6.14 4.47c.13.1.26.19.39.28l.04.03a8.8 8.8 0 0 0 6.07 1.36c3.74-.51 6.81-3.45 7.45-7.17a8.84 8.84 0 0 0-4.18-9.15c.19-.25 3.79-5.1 4.11-6.25h2.92" class="st240"/><circle cx="598.87" cy="527.78" r="27.68" class="st241"/><circle cx="572.9" cy="494.03" r="2" class="st59"/><circle cx="624.9" cy="494.03" r="2" class="st59"/><circle cx="572.9" cy="566.03" r="2" class="st59"/><circle cx="624.9" cy="566.03" r="2" class="st59"/><circle cx="598.77" cy="527.78" r="2.21" class="st59"/><circle cx="598.77" cy="527.78" r="2.21" class="st59"/><circle cx="598.77" cy="527.78" r="5.24" class="st242"/><path d="m620.21 548.44-29.29-8.99a1.3 1.3 0 0 0-.34-.05 1.35 1.35 0 0 0-.82 2.42l24.49 17.83c1 .66 2.2 1.04 3.49 1.04 3.52 0 6.37-2.85 6.37-6.37.01-2.65-1.6-4.91-3.9-5.88" class="st183"/><circle cx="617.9" cy="554.03" r="4" class="st0"/><path d="M712.9 492.28c0-1.24-1.01-2.25-2.25-2.25h-56.5c-1.24 0-2.25 1.01-2.25 2.25v75.5c0 1.24 1.01 2.25 2.25 2.25h56.5c1.24 0 2.25-1.01 2.25-2.25z" class="st205"/><path d="M682.4 570.03v-11.86c2.62-.07 5.16-.5 7.56-1.22l6.14 4.47c.13.1.26.19.39.28l.04.03a8.8 8.8 0 0 0 6.07 1.36c3.74-.51 6.81-3.45 7.45-7.17a8.84 8.84 0 0 0-4.18-9.15c.19-.25 3.79-5.1 4.11-6.25h2.92" class="st240"/><circle cx="681.91" cy="527.78" r="27.68" class="st241"/><circle cx="655.9" cy="494.03" r="2" class="st59"/><circle cx="707.9" cy="494.03" r="2" class="st59"/><circle cx="655.9" cy="566.03" r="2" class="st59"/><circle cx="707.9" cy="566.03" r="2" class="st59"/><circle cx="681.8" cy="527.78" r="2.21" class="st59"/><circle cx="681.8" cy="527.78" r="2.21" class="st59"/><circle cx="681.8" cy="527.78" r="5.24" class="st242"/><path d="m703.25 548.44-29.29-8.99a1.3 1.3 0 0 0-.34-.05 1.35 1.35 0 0 0-.82 2.42l24.49 17.83c1 .66 2.2 1.04 3.49 1.04 3.52 0 6.37-2.85 6.37-6.37.01-2.65-1.61-4.91-3.9-5.88" class="st183"/><circle cx="700.9" cy="554.03" r="4" class="st0"/><path d="M484.01 588.53H316.78c-2.97 0-5.39-2.41-5.39-5.39V373.92c0-2.97 2.41-5.39 5.39-5.39h167.23c2.97 0 5.39 2.41 5.39 5.39v209.23c0 2.97-2.41 5.38-5.39 5.38" class="st194"/><path d="M484.01 588.53H316.78c-2.97 0-5.39-2.41-5.39-5.39V373.92c0-2.97 2.41-5.39 5.39-5.39h167.23c2.97 0 5.39 2.41 5.39 5.39v209.23c0 2.97-2.41 5.38-5.39 5.38z" class="st238"/><text class="st234 st239" transform="translate(424.781 578.975)">EXPORT 4</text><text class="st234 st239" transform="translate(340.736 578.975)">EXPORT 3 </text><text class="st234 st239" transform="translate(341.782 475.356)">EXPORT 1</text><text class="st234 st239" transform="translate(424.781 474.927)">EXPORT 2</text><path d="M389.9 388.28c0-1.24-1.01-2.25-2.25-2.25h-56.5c-1.24 0-2.25 1.01-2.25 2.25v75.5c0 1.24 1.01 2.25 2.25 2.25h56.5c1.24 0 2.25-1.01 2.25-2.25z" class="st205"/><path d="M359.4 466.03v-11.86c2.62-.07 5.16-.5 7.56-1.22l6.14 4.47c.13.1.26.19.39.28l.04.03a8.8 8.8 0 0 0 6.07 1.36c3.74-.51 6.81-3.45 7.45-7.17a8.84 8.84 0 0 0-4.18-9.15c.19-.25 3.79-5.1 4.11-6.25h2.92" class="st240"/><circle cx="359.3" cy="423.63" r="27.68" class="st241"/><circle cx="332.9" cy="390.03" r="2" class="st59"/><circle cx="385.9" cy="390.03" r="2" class="st59"/><circle cx="332.9" cy="462.03" r="2" class="st59"/><circle cx="385.9" cy="462.03" r="2" class="st59"/><circle cx="359.19" cy="423.63" r="2.21" class="st59"/><circle cx="359.19" cy="423.63" r="2.21" class="st59"/><circle cx="359.19" cy="423.63" r="5.24" class="st242"/><path d="m380.64 444.29-29.29-8.99a1.3 1.3 0 0 0-.34-.05 1.35 1.35 0 0 0-.82 2.42l24.49 17.83c1 .66 2.2 1.04 3.49 1.04 3.52 0 6.37-2.85 6.37-6.37.01-2.64-1.61-4.91-3.9-5.88" class="st183"/><circle cx="377.9" cy="450.03" r="4" class="st0"/><path d="M472.9 388.28c0-1.24-1.01-2.25-2.25-2.25h-56.5c-1.24 0-2.25 1.01-2.25 2.25v75.5c0 1.24 1.01 2.25 2.25 2.25h56.5c1.24 0 2.25-1.01 2.25-2.25z" class="st205"/><path d="M442.4 466.03v-11.86c2.62-.07 5.16-.5 7.56-1.22l6.14 4.47c.13.1.26.19.39.28l.04.03a8.8 8.8 0 0 0 6.07 1.36c3.74-.51 6.81-3.45 7.45-7.17a8.84 8.84 0 0 0-4.18-9.15c.19-.25 3.79-5.1 4.11-6.25h2.92" class="st240"/><circle cx="442.33" cy="423.63" r="27.68" class="st241"/><circle cx="415.9" cy="390.03" r="2" class="st59"/><circle cx="468.9" cy="390.03" r="2" class="st59"/><circle cx="415.9" cy="462.03" r="2" class="st59"/><circle cx="468.9" cy="462.03" r="2" class="st59"/><circle cx="442.23" cy="423.63" r="2.21" class="st59"/><circle cx="442.23" cy="423.63" r="2.21" class="st59"/><circle cx="442.23" cy="423.63" r="5.24" class="st242"/><path d="m463.68 444.29-29.29-8.99a1.3 1.3 0 0 0-.34-.05 1.35 1.35 0 0 0-.82 2.42l24.49 17.83c1 .66 2.2 1.04 3.49 1.04 3.52 0 6.37-2.85 6.37-6.37a6.39 6.39 0 0 0-3.9-5.88" class="st183"/><circle cx="460.9" cy="450.03" r="4" class="st0"/><path d="M389.9 492.28c0-1.24-1.01-2.25-2.25-2.25h-56.5c-1.24 0-2.25 1.01-2.25 2.25v75.5c0 1.24 1.01 2.25 2.25 2.25h56.5c1.24 0 2.25-1.01 2.25-2.25z" class="st205"/><path d="M359.4 570.03v-11.86c2.62-.07 5.16-.5 7.56-1.22l6.14 4.47c.13.1.26.19.39.28l.04.03a8.8 8.8 0 0 0 6.07 1.36c3.74-.51 6.81-3.45 7.45-7.17a8.84 8.84 0 0 0-4.18-9.15c.19-.25 3.79-5.1 4.11-6.25h2.92" class="st240"/><circle cx="359.3" cy="527.78" r="27.68" class="st241"/><circle cx="332.9" cy="494.03" r="2" class="st59"/><circle cx="385.9" cy="494.03" r="2" class="st59"/><circle cx="332.9" cy="566.03" r="2" class="st59"/><circle cx="385.9" cy="566.03" r="2" class="st59"/><circle cx="359.19" cy="527.78" r="2.21" class="st59"/><circle cx="359.19" cy="527.78" r="2.21" class="st59"/><circle cx="359.19" cy="527.78" r="5.24" class="st242"/><path d="m380.64 548.44-29.29-8.99a1.3 1.3 0 0 0-.34-.05 1.35 1.35 0 0 0-.82 2.42l24.49 17.83c1 .66 2.2 1.04 3.49 1.04 3.52 0 6.37-2.85 6.37-6.37.01-2.65-1.61-4.91-3.9-5.88" class="st183"/><circle cx="377.9" cy="554.03" r="4" class="st0"/><path d="M472.9 492.28c0-1.24-1.01-2.25-2.25-2.25h-56.5c-1.24 0-2.25 1.01-2.25 2.25v75.5c0 1.24 1.01 2.25 2.25 2.25h56.5c1.24 0 2.25-1.01 2.25-2.25z" class="st205"/><path d="M442.4 570.03v-11.86c2.62-.07 5.16-.5 7.56-1.22l6.14 4.47c.13.1.26.19.39.28l.04.03a8.8 8.8 0 0 0 6.07 1.36c3.74-.51 6.81-3.45 7.45-7.17a8.84 8.84 0 0 0-4.18-9.15c.19-.25 3.79-5.1 4.11-6.25h2.92" class="st240"/><circle cx="442.33" cy="527.78" r="27.68" class="st241"/><circle cx="415.9" cy="494.03" r="2" class="st59"/><circle cx="468.9" cy="494.03" r="2" class="st59"/><circle cx="415.9" cy="566.03" r="2" class="st59"/><circle cx="468.9" cy="566.03" r="2" class="st59"/><circle cx="442.23" cy="527.78" r="2.21" class="st59"/><circle cx="442.23" cy="527.78" r="2.21" class="st59"/><circle cx="442.23" cy="527.78" r="5.24" class="st242"/><path d="m463.68 548.44-29.29-8.99a1.3 1.3 0 0 0-.34-.05 1.35 1.35 0 0 0-.82 2.42l24.49 17.83c1 .66 2.2 1.04 3.49 1.04 3.52 0 6.37-2.85 6.37-6.37a6.38 6.38 0 0 0-3.9-5.88" class="st183"/><circle cx="460.9" cy="554.03" r="4" class="st0"/><path d="M245.01 588.53H77.78c-2.97 0-5.39-2.41-5.39-5.39V373.92c0-2.97 2.41-5.39 5.39-5.39h167.23c2.97 0 5.39 2.41 5.39 5.39v209.23c0 2.97-2.41 5.38-5.39 5.38" class="st194"/><path d="M245.01 588.53H77.78c-2.97 0-5.39-2.41-5.39-5.39V373.92c0-2.97 2.41-5.39 5.39-5.39h167.23c2.97 0 5.39 2.41 5.39 5.39v209.23c0 2.97-2.41 5.38-5.39 5.38z" class="st238"/><text class="st234 st239" transform="translate(185.155 578.975)">EXPORT 4</text><text class="st234 st239" transform="translate(101.109 578.975)">EXPORT 3 </text><text class="st234 st239" transform="translate(102.155 475.356)">EXPORT 1</text><text class="st234 st239" transform="translate(185.155 474.927)">EXPORT 2</text><path d="M149.9 388.28c0-1.24-1.01-2.25-2.25-2.25h-56.5c-1.24 0-2.25 1.01-2.25 2.25v75.5c0 1.24 1.01 2.25 2.25 2.25h56.5c1.24 0 2.25-1.01 2.25-2.25z" class="st205"/><path d="M119.4 466.03v-11.86c2.62-.07 5.16-.5 7.56-1.22l6.14 4.47c.13.1.26.19.39.28l.04.03a8.8 8.8 0 0 0 6.07 1.36c3.74-.51 6.81-3.45 7.45-7.17a8.84 8.84 0 0 0-4.18-9.15c.19-.25 3.79-5.1 4.11-6.25h2.92" class="st240"/><circle cx="119.67" cy="423.63" r="27.68" class="st241"/><circle cx="93.9" cy="390.03" r="2" class="st59"/><circle cx="145.9" cy="390.03" r="2" class="st59"/><circle cx="93.9" cy="462.03" r="2" class="st59"/><circle cx="145.9" cy="462.03" r="2" class="st59"/><circle cx="119.57" cy="423.63" r="2.21" class="st59"/><circle cx="119.57" cy="423.63" r="2.21" class="st59"/><circle cx="119.57" cy="423.63" r="5.24" class="st242"/><path d="m141.01 444.29-29.29-8.99a1.3 1.3 0 0 0-.34-.05 1.35 1.35 0 0 0-.82 2.42l24.49 17.83c1 .66 2.2 1.04 3.49 1.04 3.52 0 6.37-2.85 6.37-6.37.01-2.64-1.6-4.91-3.9-5.88" class="st183"/><circle cx="138.9" cy="450.03" r="4" class="st0"/><path d="M232.9 388.28c0-1.24-1.01-2.25-2.25-2.25h-56.5c-1.24 0-2.25 1.01-2.25 2.25v75.5c0 1.24 1.01 2.25 2.25 2.25h56.5c1.24 0 2.25-1.01 2.25-2.25z" class="st205"/><path d="M202.4 466.03v-11.86c2.62-.07 5.16-.5 7.56-1.22l6.14 4.47c.13.1.26.19.39.28l.04.03a8.8 8.8 0 0 0 6.07 1.36c3.74-.51 6.81-3.45 7.45-7.17a8.84 8.84 0 0 0-4.18-9.15c.19-.25 3.79-5.1 4.11-6.25h2.92" class="st240"/><circle cx="202.71" cy="423.63" r="27.68" class="st241"/><circle cx="176.9" cy="390.03" r="2" class="st59"/><circle cx="228.9" cy="390.03" r="2" class="st59"/><circle cx="176.9" cy="462.03" r="2" class="st59"/><circle cx="228.9" cy="462.03" r="2" class="st59"/><circle cx="202.6" cy="423.63" r="2.21" class="st59"/><circle cx="202.6" cy="423.63" r="2.21" class="st59"/><circle cx="202.6" cy="423.63" r="5.24" class="st242"/><path d="m224.05 444.29-29.29-8.99a1.3 1.3 0 0 0-.34-.05 1.35 1.35 0 0 0-.82 2.42l24.49 17.83c1 .66 2.2 1.04 3.49 1.04 3.52 0 6.37-2.85 6.37-6.37.01-2.64-1.61-4.91-3.9-5.88" class="st183"/><circle cx="221.9" cy="450.03" r="4" class="st0"/><path d="M149.9 492.28c0-1.24-1.01-2.25-2.25-2.25h-56.5c-1.24 0-2.25 1.01-2.25 2.25v75.5c0 1.24 1.01 2.25 2.25 2.25h56.5c1.24 0 2.25-1.01 2.25-2.25z" class="st205"/><path d="M119.4 570.03v-11.86c2.62-.07 5.16-.5 7.56-1.22l6.14 4.47c.13.1.26.19.39.28l.04.03a8.8 8.8 0 0 0 6.07 1.36c3.74-.51 6.81-3.45 7.45-7.17a8.84 8.84 0 0 0-4.18-9.15c.19-.25 3.79-5.1 4.11-6.25h2.92" class="st240"/><circle cx="119.67" cy="527.78" r="27.68" class="st241"/><circle cx="93.9" cy="494.03" r="2" class="st59"/><circle cx="145.9" cy="494.03" r="2" class="st59"/><circle cx="93.9" cy="566.03" r="2" class="st59"/><circle cx="145.9" cy="566.03" r="2" class="st59"/><circle cx="119.57" cy="527.78" r="2.21" class="st59"/><circle cx="119.57" cy="527.78" r="2.21" class="st59"/><circle cx="119.57" cy="527.78" r="5.24" class="st242"/><path d="m141.01 548.44-29.29-8.99a1.3 1.3 0 0 0-.34-.05 1.35 1.35 0 0 0-.82 2.42l24.49 17.83c1 .66 2.2 1.04 3.49 1.04 3.52 0 6.37-2.85 6.37-6.37.01-2.65-1.6-4.91-3.9-5.88" class="st183"/><circle cx="138.9" cy="554.03" r="4" class="st0"/><path d="M232.9 492.28c0-1.24-1.01-2.25-2.25-2.25h-56.5c-1.24 0-2.25 1.01-2.25 2.25v75.5c0 1.24 1.01 2.25 2.25 2.25h56.5c1.24 0 2.25-1.01 2.25-2.25z" class="st205"/><path d="M202.4 570.03v-11.86c2.62-.07 5.16-.5 7.56-1.22l6.14 4.47c.13.1.26.19.39.28l.04.03a8.8 8.8 0 0 0 6.07 1.36c3.74-.51 6.81-3.45 7.45-7.17a8.84 8.84 0 0 0-4.18-9.15c.19-.25 3.79-5.1 4.11-6.25h2.92" class="st240"/><circle cx="202.71" cy="527.78" r="27.68" class="st241"/><circle cx="176.9" cy="494.03" r="2" class="st59"/><circle cx="228.9" cy="494.03" r="2" class="st59"/><circle cx="176.9" cy="566.03" r="2" class="st59"/><circle cx="228.9" cy="566.03" r="2" class="st59"/><circle cx="202.6" cy="527.78" r="2.21" class="st59"/><circle cx="202.6" cy="527.78" r="2.21" class="st59"/><circle cx="202.6" cy="527.78" r="5.24" class="st242"/><path d="m224.05 548.44-29.29-8.99a1.3 1.3 0 0 0-.34-.05 1.35 1.35 0 0 0-.82 2.42l24.49 17.83c1 .66 2.2 1.04 3.49 1.04 3.52 0 6.37-2.85 6.37-6.37.01-2.65-1.61-4.91-3.9-5.88" class="st183"/><circle cx="221.9" cy="554.03" r="4" class="st0"/><path d="M616.86 148.53h429.04" class="st243"/><circle cx="616.97" cy="148.53" r="2.07" class="st142"/><path d="M667.86 66.53h380.04" class="st243"/><circle cx="667.97" cy="66.53" r="2.07" class="st142"/><path d="M958.86 291.53h88.04" class="st243"/><circle cx="958.97" cy="291.53" r="2.07" class="st142"/><path d="M964.01 588.53H796.78c-2.97 0-5.39-2.41-5.39-5.39V373.92c0-2.97 2.41-5.39 5.39-5.39h167.23c2.97 0 5.39 2.41 5.39 5.39v209.23c0 2.97-2.41 5.38-5.39 5.38" class="st194"/><path d="M964.01 588.53H796.78c-2.97 0-5.39-2.41-5.39-5.39V373.92c0-2.97 2.41-5.39 5.39-5.39h167.23c2.97 0 5.39 2.41 5.39 5.39v209.23c0 2.97-2.41 5.38-5.39 5.38z" class="st238"/><text class="st234 st239" transform="translate(903.98 578.975)">EXPORT 4</text><text class="st234 st239" transform="translate(819.935 578.975)">EXPORT 3 </text><text class="st234 st239" transform="translate(820.981 475.356)">EXPORT 1</text><text class="st234 st239" transform="translate(903.98 474.927)">EXPORT 2</text><path d="M868.9 388.28c0-1.24-1.01-2.25-2.25-2.25h-56.5c-1.24 0-2.25 1.01-2.25 2.25v75.5c0 1.24 1.01 2.25 2.25 2.25h56.5c1.24 0 2.25-1.01 2.25-2.25z" class="st205"/><path d="M838.4 466.03v-11.86c2.62-.07 5.16-.5 7.56-1.22l6.14 4.47c.13.1.26.19.39.28l.04.03a8.8 8.8 0 0 0 6.07 1.36c3.74-.51 6.81-3.45 7.45-7.17a8.84 8.84 0 0 0-4.18-9.15c.19-.25 3.79-5.1 4.11-6.25h2.92" class="st240"/><circle cx="838.5" cy="423.63" r="27.68" class="st241"/><circle cx="811.9" cy="390.03" r="2" class="st59"/><circle cx="864.9" cy="390.03" r="2" class="st59"/><circle cx="811.9" cy="462.03" r="2" class="st59"/><circle cx="864.9" cy="462.03" r="2" class="st59"/><circle cx="838.39" cy="423.63" r="2.21" class="st59"/><circle cx="838.39" cy="423.63" r="2.21" class="st59"/><circle cx="838.39" cy="423.63" r="5.24" class="st242"/><path d="m859.84 444.29-29.29-8.99a1.3 1.3 0 0 0-.34-.05 1.35 1.35 0 0 0-.82 2.42l24.49 17.83c1 .66 2.2 1.04 3.49 1.04 3.52 0 6.37-2.85 6.37-6.37.01-2.64-1.61-4.91-3.9-5.88" class="st183"/><circle cx="856.9" cy="450.03" r="4" class="st0"/><path d="M951.9 388.28c0-1.24-1.01-2.25-2.25-2.25h-56.5c-1.24 0-2.25 1.01-2.25 2.25v75.5c0 1.24 1.01 2.25 2.25 2.25h56.5c1.24 0 2.25-1.01 2.25-2.25z" class="st205"/><path d="M921.4 466.03v-11.86c2.62-.07 5.16-.5 7.56-1.22l6.14 4.47c.13.1.26.19.39.28l.04.03a8.8 8.8 0 0 0 6.07 1.36c3.74-.51 6.81-3.45 7.45-7.17a8.84 8.84 0 0 0-4.18-9.15c.19-.25 3.79-5.1 4.11-6.25h2.92" class="st240"/><circle cx="921.53" cy="423.63" r="27.68" class="st241"/><circle cx="894.9" cy="390.03" r="2" class="st59"/><circle cx="947.9" cy="390.03" r="2" class="st59"/><circle cx="894.9" cy="462.03" r="2" class="st59"/><circle cx="947.9" cy="462.03" r="2" class="st59"/><circle cx="921.43" cy="423.63" r="2.21" class="st59"/><circle cx="921.43" cy="423.63" r="2.21" class="st59"/><circle cx="921.43" cy="423.63" r="5.24" class="st242"/><path d="m942.87 444.29-29.29-8.99a1.3 1.3 0 0 0-.34-.05 1.35 1.35 0 0 0-.82 2.42l24.49 17.83c1 .66 2.2 1.04 3.49 1.04 3.52 0 6.37-2.85 6.37-6.37.01-2.64-1.6-4.91-3.9-5.88" class="st183"/><circle cx="940.9" cy="450.03" r="4" class="st0"/><path d="M868.9 492.28c0-1.24-1.01-2.25-2.25-2.25h-56.5c-1.24 0-2.25 1.01-2.25 2.25v75.5c0 1.24 1.01 2.25 2.25 2.25h56.5c1.24 0 2.25-1.01 2.25-2.25z" class="st205"/><path d="M838.4 570.03v-11.86c2.62-.07 5.16-.5 7.56-1.22l6.14 4.47c.13.1.26.19.39.28l.04.03a8.8 8.8 0 0 0 6.07 1.36c3.74-.51 6.81-3.45 7.45-7.17a8.84 8.84 0 0 0-4.18-9.15c.19-.25 3.79-5.1 4.11-6.25h2.92" class="st240"/><circle cx="838.5" cy="527.78" r="27.68" class="st241"/><circle cx="811.9" cy="494.03" r="2" class="st59"/><circle cx="864.9" cy="494.03" r="2" class="st59"/><circle cx="811.9" cy="566.03" r="2" class="st59"/><circle cx="864.9" cy="566.03" r="2" class="st59"/><circle cx="838.39" cy="527.78" r="2.21" class="st59"/><circle cx="838.39" cy="527.78" r="2.21" class="st59"/><circle cx="838.39" cy="527.78" r="5.24" class="st242"/><path d="m859.84 548.44-29.29-8.99a1.3 1.3 0 0 0-.34-.05 1.35 1.35 0 0 0-.82 2.42l24.49 17.83c1 .66 2.2 1.04 3.49 1.04 3.52 0 6.37-2.85 6.37-6.37.01-2.65-1.61-4.91-3.9-5.88" class="st183"/><circle cx="856.9" cy="554.03" r="4" class="st0"/><path d="M951.9 492.28c0-1.24-1.01-2.25-2.25-2.25h-56.5c-1.24 0-2.25 1.01-2.25 2.25v75.5c0 1.24 1.01 2.25 2.25 2.25h56.5c1.24 0 2.25-1.01 2.25-2.25z" class="st205"/><path d="M921.4 570.03v-11.86c2.62-.07 5.16-.5 7.56-1.22l6.14 4.47c.13.1.26.19.39.28l.04.03a8.8 8.8 0 0 0 6.07 1.36c3.74-.51 6.81-3.45 7.45-7.17a8.84 8.84 0 0 0-4.18-9.15c.19-.25 3.79-5.1 4.11-6.25h2.92" class="st240"/><circle cx="921.53" cy="527.78" r="27.68" class="st241"/><circle cx="894.9" cy="494.03" r="2" class="st59"/><circle cx="947.9" cy="494.03" r="2" class="st59"/><circle cx="894.9" cy="566.03" r="2" class="st59"/><circle cx="947.9" cy="566.03" r="2" class="st59"/><circle cx="921.43" cy="527.78" r="2.21" class="st59"/><circle cx="921.43" cy="527.78" r="2.21" class="st59"/><circle cx="921.43" cy="527.78" r="5.24" class="st242"/><path d="m942.87 548.44-29.29-8.99a1.3 1.3 0 0 0-.34-.05 1.35 1.35 0 0 0-.82 2.42l24.49 17.83c1 .66 2.2 1.04 3.49 1.04 3.52 0 6.37-2.85 6.37-6.37.01-2.65-1.6-4.91-3.9-5.88" class="st183"/><circle cx="940.9" cy="554.03" r="4" class="st0"/><path d="M958.86 481.53h88.04" class="st243"/><circle cx="958.97" cy="481.53" r="2.07" class="st142"/></svg>
